# 3ds Max Wavefront OBJ Exporter v0.97b - (c)2007 guruware
# 创建的文件:24.10.2015 22:27:01

mtllib 箭头向上.mtl

#
# object Box002
#

v  -7.5358 40.2338 10.0000
v  8.3741 24.3239 10.0000
v  15.4452 31.3950 10.0000
v  -0.4647 47.3049 10.0000
v  24.2840 8.4140 10.0000
v  31.3551 15.4851 10.0000
v  -7.5358 40.2338 0.0000
v  -0.4647 47.3049 0.0000
v  15.4452 31.3950 0.0000
v  8.3741 24.3239 -0.0000
v  31.3551 15.4851 -0.0000
v  24.2840 8.4140 -0.0000
# 12 vertices

vn -0.0000 -0.0000 1.0000
vn 0.0000 0.0000 -1.0000
vn -0.7071 0.7071 0.0000
vn 0.7071 0.7071 0.0000
vn 0.7071 -0.7071 -0.0000
vn -0.7071 -0.7071 -0.0000
# 6 vertex normals

vt 1.0000 0.0000 0.0000
vt 1.0000 0.5000 0.0000
vt 0.0000 0.5000 0.0000
vt 0.0000 0.0000 0.0000
vt 1.0000 1.0000 0.0000
vt 0.0000 1.0000 0.0000
vt 0.5000 0.0000 0.0000
vt 0.5000 1.0000 0.0000
# 8 texture coords

g Box002
usemtl wire_008008136
s 2
f 1/1/1 2/2/1 3/3/1 4/4/1 
f 2/2/1 5/5/1 6/6/1 3/3/1 
s 4
f 7/4/2 8/1/2 9/2/2 10/3/2 
f 10/3/2 9/2/2 11/5/2 12/6/2 
s 8
f 1/4/3 4/1/3 8/5/3 7/6/3 
s 16
f 4/4/4 3/7/4 9/8/4 8/6/4 
f 3/7/4 6/1/4 11/5/4 9/8/4 
s 32
f 6/4/5 5/1/5 12/5/5 11/6/5 
s 64
f 5/4/6 2/7/6 10/8/6 12/6/6 
f 2/7/6 1/1/6 7/5/6 10/8/6 
# 10 polygons

#
# object Box003
#

v  -0.5534 47.3049 10.0000
v  -16.4633 31.3950 10.0000
v  -9.3922 24.3239 10.0000
v  6.5177 40.2338 10.0000
v  -32.3732 15.4851 10.0000
v  -25.3021 8.4140 10.0000
v  -0.5534 47.3049 0.0000
v  6.5177 40.2338 0.0000
v  -9.3922 24.3239 -0.0000
v  -16.4633 31.3950 -0.0000
v  -25.3021 8.4140 -0.0000
v  -32.3732 15.4851 -0.0000
# 12 vertices

vn -0.0000 0.0000 1.0000
vn 0.0000 -0.0000 -1.0000
vn 0.7071 0.7071 0.0000
vn 0.7071 -0.7071 0.0000
vn -0.7071 -0.7071 -0.0000
vn -0.7071 0.7071 -0.0000
# 6 vertex normals

vt 1.0000 0.0000 0.0000
vt 1.0000 0.5000 0.0000
vt 0.0000 0.5000 0.0000
vt 0.0000 0.0000 0.0000
vt 1.0000 1.0000 0.0000
vt 0.0000 1.0000 0.0000
vt 0.5000 0.0000 0.0000
vt 0.5000 1.0000 0.0000
# 8 texture coords

g Box003
usemtl wire_008008136
s 2
f 13/9/7 14/10/7 15/11/7 16/12/7 
f 14/10/7 17/13/7 18/14/7 15/11/7 
s 4
f 19/12/8 20/9/8 21/10/8 22/11/8 
f 22/11/8 21/10/8 23/13/8 24/14/8 
s 8
f 13/12/9 16/9/9 20/13/9 19/14/9 
s 16
f 16/12/10 15/15/10 21/16/10 20/14/10 
f 15/15/10 18/9/10 23/13/10 21/16/10 
s 32
f 18/12/11 17/9/11 24/13/11 23/14/11 
s 64
f 17/12/12 14/15/12 22/16/12 24/14/12 
f 14/15/12 13/9/12 19/13/12 22/16/12 
# 10 polygons

#
# object Box004
#

v  -7.5683 1.1618 10.0000
v  -7.5683 -14.5374 10.0000
v  7.7167 -14.5374 10.0000
v  7.7167 1.1618 10.0000
v  -7.5683 1.1618 -0.0000
v  7.7167 1.1618 0.0000
v  7.7167 -14.5374 0.0000
v  -7.5683 -14.5374 -0.0000
# 8 vertices

vn -0.0000 -0.0000 1.0000
vn 0.0000 0.0000 -1.0000
vn 0.0000 1.0000 0.0000
vn 1.0000 -0.0000 0.0000
vn -0.0000 -1.0000 -0.0000
vn -1.0000 0.0000 -0.0000
# 6 vertex normals

vt 1.0000 0.0000 0.0000
vt 1.0000 1.0000 0.0000
vt 0.0000 1.0000 0.0000
vt 0.0000 0.0000 0.0000
# 4 texture coords

g Box004
usemtl wire_008008136
s 2
f 25/17/13 26/18/13 27/19/13 28/20/13 
s 4
f 29/20/14 30/17/14 31/18/14 32/19/14 
s 8
f 25/20/15 28/17/15 30/18/15 29/19/15 
s 16
f 28/20/16 27/17/16 31/18/16 30/19/16 
s 32
f 27/20/17 26/17/17 32/18/17 31/19/17 
s 64
f 26/20/18 25/17/18 29/18/18 32/19/18 
# 6 polygons

#
# object Box005
#

v  -7.5683 -16.7931 10.0000
v  -7.5683 -23.0728 10.0000
v  7.7167 -23.0728 10.0000
v  7.7167 -16.7931 10.0000
v  -7.5683 -16.7931 0.0000
v  7.7167 -16.7931 0.0000
v  7.7167 -23.0728 0.0000
v  -7.5683 -23.0728 0.0000
# 8 vertices

vn -0.0000 -0.0000 1.0000
vn 0.0000 0.0000 -1.0000
vn 0.0000 1.0000 0.0000
vn 1.0000 -0.0000 0.0000
vn -0.0000 -1.0000 -0.0000
vn -1.0000 0.0000 -0.0000
# 6 vertex normals

vt 1.0000 0.0000 0.0000
vt 1.0000 1.0000 0.0000
vt 0.0000 1.0000 0.0000
vt 0.0000 0.0000 0.0000
# 4 texture coords

g Box005
usemtl wire_008008136
s 2
f 33/21/19 34/22/19 35/23/19 36/24/19 
s 4
f 37/24/20 38/21/20 39/22/20 40/23/20 
s 8
f 33/24/21 36/21/21 38/22/21 37/23/21 
s 16
f 36/24/22 35/21/22 39/22/22 38/23/22 
s 32
f 35/24/23 34/21/23 40/22/23 39/23/23 
s 64
f 34/24/24 33/21/24 37/22/24 40/23/24 
# 6 polygons

#
# object Box001
#

v  -7.5491 34.7294 10.0000
v  -7.5491 19.0302 10.0000
v  7.7359 19.0302 10.0000
v  7.7359 34.7294 10.0000
v  -7.5491 3.3309 10.0000
v  7.7359 3.3309 10.0000
v  -7.5491 34.7294 -0.0000
v  7.7359 34.7294 0.0000
v  7.7359 19.0302 0.0000
v  -7.5491 19.0302 -0.0000
v  7.7359 3.3309 0.0000
v  -7.5491 3.3309 -0.0000
# 12 vertices

vn -0.0000 -0.0000 1.0000
vn 0.0000 0.0000 -1.0000
vn 0.0000 1.0000 0.0000
vn 1.0000 -0.0000 0.0000
vn -0.0000 -1.0000 -0.0000
vn -1.0000 0.0000 -0.0000
# 6 vertex normals

vt 1.0000 0.0000 0.0000
vt 1.0000 0.5000 0.0000
vt 0.0000 0.5000 0.0000
vt 0.0000 0.0000 0.0000
vt 1.0000 1.0000 0.0000
vt 0.0000 1.0000 0.0000
vt 0.5000 0.0000 0.0000
vt 0.5000 1.0000 0.0000
# 8 texture coords

g Box001
usemtl wire_008008136
s 2
f 41/25/25 42/26/25 43/27/25 44/28/25 
f 42/26/25 45/29/25 46/30/25 43/27/25 
s 4
f 47/28/26 48/25/26 49/26/26 50/27/26 
f 50/27/26 49/26/26 51/29/26 52/30/26 
s 8
f 41/28/27 44/25/27 48/29/27 47/30/27 
s 16
f 44/28/28 43/31/28 49/32/28 48/30/28 
f 43/31/28 46/25/28 51/29/28 49/32/28 
s 32
f 46/28/29 45/25/29 52/29/29 51/30/29 
s 64
f 45/28/30 42/31/30 50/32/30 52/30/30 
f 42/31/30 41/25/30 47/29/30 50/32/30 
# 10 polygons

